<svg width="1228" height="1228" viewBox="0 0 1228 1228" fill="none" xmlns="http://www.w3.org/2000/svg">
    <g clip-path="url(#clip0_302_2)">
        <path d="M211.518 967.759C275.106 1046.76 372.178 1108.86 469.717 1141.73C474.107 1143.21 478.521 1144.63 482.96 1146C449.943 1131.32 381.558 1103.53 327.058 1065C270.558 1029 185.432 938.5 161.99 889.259C173.192 912.789 197.541 952.959 211.518 967.759Z" fill="#FF0000"/>
        <path fill-rule="evenodd" clip-rule="evenodd" d="M1114.02 398C1145.14 466.887 1162.49 543.509 1162.49 624.23C1162.49 905.948 942.463 1137.96 671.709 1165.3C654.042 1167.09 636.125 1168 618 1168C682.078 1163.87 839.36 1136.86 920.96 1062.88C1058.93 967.374 1149.55 806.567 1149.55 624.23C1159.14 559.613 1129.86 446.486 1114.02 398ZM743.477 93.6414C705.896 85.1688 666.826 80.7002 626.725 80.7002C356.682 80.7002 135.99 267.576 98.93 531C95.3701 556.304 93.5283 582.17 93.5283 608.47C94.604 601.53 95.6798 591.886 96.8885 581.051C99.916 553.909 103.777 519.296 110.558 501C158.568 258.187 373.457 93.6414 626.725 93.6414C658.054 93.6414 688.742 96.4386 718.558 101.801C856.541 126.616 975.857 206.361 1053.74 318C980.928 184.4 816.56 112.761 743.477 93.6414Z" fill="#FF0000"/>
        <path d="M634.291 80.7009C360.026 80.7009 142.254 299.263 114.451 569.481C112.548 587.976 114.451 670.751 114.451 689.76C112.043 678.593 102.03 589 114.451 522C161.72 267.028 368.425 67.7598 634.291 67.7598C934.624 67.7598 1177.96 314.076 1177.96 617.76C1177.96 790.652 1092.08 941.498 962.934 1039.49C936.816 1060.36 908.714 1078.8 878.961 1094.47C856.579 1108.42 825.762 1119.82 792.399 1128.93C744.18 1144.77 693.456 1154.45 641.47 1157.07C632.357 1157.53 623.185 1157.76 613.96 1157.76C655.144 1155.38 728.449 1146.38 792.399 1128.93C854.237 1108.61 911.956 1078.17 962.934 1039.49C1086.01 941.146 1165.02 788.81 1165.02 617.76C1165.02 321.077 927.329 80.7009 634.291 80.7009Z" fill="white"/>
        <path fill-rule="evenodd" clip-rule="evenodd" d="M104.115 551.08C132.974 284.445 359.62 76.8741 634.902 76.8741C929.746 76.8741 1168.79 314.991 1168.79 608.76C1168.79 902.528 929.746 1140.65 634.902 1140.65C411.534 1140.65 223.593 1014.28 143.948 820.276L134.463 801.504C139.187 821.508 159.468 863.836 169.017 882.5C260.733 1044.06 433.193 1145.76 634.902 1145.76C932.633 1145.76 1173.96 905.32 1173.96 608.76C1173.96 312.199 932.633 71.7598 634.902 71.7598C356.922 71.7598 128.111 281.357 98.9758 550.536C98.8239 551.94 99.851 553.2 101.27 553.351C102.689 553.501 103.963 552.485 104.115 551.08Z" fill="white"/>
        <path fill-rule="evenodd" clip-rule="evenodd" d="M95.3637 681.53C54.9804 411.811 224.966 148.954 496.535 77.6525C787.4 1.28441 1084.71 173.564 1160.57 462.495C1236.43 751.425 1062.1 1047.54 771.234 1123.91C550.879 1181.76 332.842 1106.15 204.174 935.975L189.97 919.969C199.796 938.42 230.733 974.798 244.973 990.681C377.173 1125.83 573.567 1181.18 772.555 1128.94C1066.27 1051.82 1242.25 752.833 1165.67 461.156C1089.09 169.479 788.927 -4.4934 495.214 72.6224C220.985 144.623 49.385 410.033 90.1535 682.326C90.3662 683.746 91.705 684.719 93.1437 684.5C94.5825 684.28 95.5764 682.951 95.3637 681.53Z" fill="white"/>
        <path fill-rule="evenodd" clip-rule="evenodd" d="M278.558 997C301.801 1023.38 377.715 1071.29 413.735 1090.63C346.06 1062.17 286.96 1017.29 236.936 963.997L210.71 929.715L243.521 963.59C254.677 975.285 266.372 986.431 278.558 997Z" fill="#FF0000"/>
        <path d="M102.782 640.468C91.9409 395.309 262.438 169.566 515.089 114.392C796.939 52.843 1074.34 226.863 1134.67 503.107C1153.21 587.991 1149.09 672.646 1126.31 750.984C1114.91 802.579 1071.22 881.798 1050.81 914.958C1135.52 799.602 1172.22 651.155 1139.65 502.02C1078.74 223.116 798.651 47.3816 514.029 109.537C258.888 165.253 86.7501 393.207 97.6963 640.735C99.7348 664.724 105.449 715.958 112 728.978C105.047 704.358 102.958 659.713 102.782 640.468Z" fill="#FF0000"/>
        <path fill-rule="evenodd" clip-rule="evenodd" d="M1139.08 639C1138.38 493.4 1096.73 404.333 1076 378C1110.36 447.183 1129.69 525.207 1129.69 607.76C1129.69 809.966 1021.37 986.497 852.558 1071C810.545 1095.11 690.991 1140.65 548.876 1129.98C573.202 1133.46 598.142 1135.26 623.6 1135.26C902.54 1135.26 1123.49 915.073 1139.08 639ZM98.3307 525.5C137.668 274.064 354.451 81.7598 615.961 81.7598C685.16 82.1102 857.758 123.724 966.558 237C875.54 154.751 748.076 92.0988 615.961 92.0988C345.767 92.0988 122.758 282.095 102.235 548C99.1799 575.563 92.9877 645.728 92.8211 664.5C90.6316 638.1 95.5819 560.833 98.3307 525.5Z" fill="white"/>
        <path fill-rule="evenodd" clip-rule="evenodd" d="M140.694 342.493C73.2121 484.153 71.4917 589.887 79.0668 625.046C78.4712 541.985 96.444 457.301 135.088 377.167C229.743 180.884 416.346 59.6626 617.941 55.7771C669.552 51.8246 805.627 62.9554 937.042 139.098C915.323 124.458 892.225 111.167 867.79 99.3835C600.045 -29.7336 284.888 81.724 140.694 342.493ZM1086.54 934.416C931.084 1160.28 632.982 1246.6 381.968 1125.55C315.711 1093.18 169.52 972.892 118.112 812.574C166.975 934.544 259.995 1054.36 386.808 1115.52C646.157 1240.58 949.155 1159.38 1093.33 910.767C1109.16 885.426 1147.95 820.184 1156.9 802.038C1146.64 828.678 1105.72 901.39 1086.54 934.416Z" fill="#FF0000"/>
        <path fill-rule="evenodd" clip-rule="evenodd" d="M1154.74 471.666C1111.56 327.398 1044.25 251.173 1015.99 231.094C1070.27 289.715 1112.21 361.495 1136.3 443.409C1195.31 644.05 1139.34 850.821 996.495 983.929C961.842 1020.11 856.503 1100.18 712.374 1131.06C737.528 1127.42 762.8 1121.93 788.06 1114.5C1064.84 1033.1 1219.83 750.149 1154.74 471.666ZM88.9294 662.738C54.5928 401.769 213.582 147.697 473.067 71.3879C541.833 51.5432 725.238 42.4706 866.25 123.121C751.936 68.0683 607.177 43.0952 476.084 81.6469C207.983 160.49 42.1419 414.09 99.3692 683.924C104.381 712.166 118.71 783.594 124.023 802.269C114.147 776.713 96.5122 698.6 88.9294 662.738Z" fill="#FF0000"/>
        <path d="M882.556 478.065C880.377 489.8 839.873 488.75 819.893 486.758C855.202 497.945 872.748 526.914 877.107 540H843.324C837.33 529.496 816.188 508.055 779.571 506.316C742.954 504.578 718.906 528.048 711.459 540C712.73 533.481 720.831 516.639 743.063 501.427C707.099 504.143 646.616 519.355 592.671 540C640.656 500.22 781.999 471.079 815.588 464.153L816.624 463.94C848.228 457.42 840.599 444.381 825.342 428.626C810.085 412.871 769.218 398.745 753.416 391.139C737.614 383.533 747.967 358.542 763.769 365.605C766.493 361.258 774.122 346.59 825.342 382.99C876.562 419.39 885.281 463.396 882.556 478.065Z" fill="#FF0000"/>
        <path d="M439.555 480.782C400.322 480.782 375.984 520.261 368.718 540C379.071 524.064 407.733 492.082 439.555 491.647C479.332 491.104 502.763 520.985 521.29 540C515.841 525.875 488.596 480.782 439.555 480.782Z" fill="#FF0000"/>
        <path d="M535.457 537.284C527.828 517.725 496.769 480.782 473.883 472.089C510.065 483.824 535.094 513.56 543.085 526.961L623.185 510.119C614.285 512.836 584.28 522.072 535.457 537.284Z" fill="#FF0000"/>
        <path d="M749.601 461.223C726.171 446.011 661.328 428.626 604.114 442.208C623.367 442.208 662.091 446.011 662.963 461.223C663.835 476.435 645.163 490.018 635.718 494.907C658.785 487.301 713.856 469.916 749.601 461.223Z" fill="#FF0000"/>
        <path d="M469.524 379.187C438.102 383.171 372.206 392.226 360 396.572C403.592 402.005 492.41 447.641 535.457 491.647C597.03 384.62 720.177 425.366 779.571 453.074C676.585 379.187 592.671 400.918 547.989 438.405C480.422 433.572 467.526 396.912 469.524 379.187Z" fill="#FF0000"/>
        <g filter="url(#filter0_d_302_2)">
            <path d="M361.895 579.166C361.895 572.764 364.498 567.669 369.704 563.88C374.91 559.96 381.874 558 390.594 558L429.64 657.952L424.759 671.279L426.907 672.259L468.882 558.196C477.602 558.196 484.565 560.156 489.772 564.076C494.978 567.865 497.581 572.96 497.581 579.362V698.913C478.969 698.913 469.663 692.053 469.663 678.334V622.283L476.691 602.684L474.348 601.9L441.159 691.269C440.248 693.49 438.751 695.32 436.669 696.757C434.586 698.194 432.308 698.913 429.835 698.913C427.232 698.913 424.89 698.194 422.807 696.757C420.725 695.32 419.228 693.425 418.317 691.073L385.127 601.508L382.785 602.488L389.813 622.087V678.334C389.813 692.053 380.507 698.913 361.895 698.913V579.166Z" fill="white"/>
            <path d="M573.855 698.913C563.183 698.913 553.356 696.822 544.375 692.641C535.395 688.329 528.236 682.581 522.9 675.394C517.694 668.078 515.091 660.238 515.091 651.876V605.232C515.091 596.87 517.694 589.096 522.9 581.91C528.236 574.593 535.395 568.844 544.375 564.663C553.356 560.352 563.183 558.196 573.855 558.196C584.528 558.196 594.355 560.352 603.335 564.663C612.316 568.844 619.409 574.593 624.616 581.91C629.952 589.096 632.62 596.87 632.62 605.232V651.876C632.62 660.238 629.952 668.078 624.616 675.394C619.409 682.581 612.316 688.329 603.335 692.641C594.355 696.822 584.528 698.913 573.855 698.913ZM573.855 673.827C582.706 673.827 589.929 671.736 595.526 667.555C601.123 663.374 603.921 657.952 603.921 651.288V605.82C603.921 599.157 601.123 593.734 595.526 589.553C589.929 585.372 582.706 583.282 573.855 583.282C565.005 583.282 557.781 585.372 552.185 589.553C546.588 593.734 543.79 599.157 543.79 605.82V651.288C543.79 657.952 546.588 663.374 552.185 667.555C557.781 671.736 565.005 673.827 573.855 673.827Z" fill="white"/>
            <path d="M686.403 584.85H639.352C639.352 568.257 646.836 559.96 661.804 559.96H761.958C761.958 576.553 754.474 584.85 739.506 584.85H715.102V678.138C715.102 684.932 712.629 690.093 707.684 693.621C702.868 697.149 695.774 698.913 686.403 698.913V584.85Z" fill="white"/>
            <path d="M823.614 698.913C812.942 698.913 803.115 696.822 794.134 692.641C785.154 688.329 777.995 682.581 772.659 675.394C767.453 668.078 764.85 660.238 764.85 651.876V605.232C764.85 596.87 767.453 589.096 772.659 581.91C777.995 574.593 785.154 568.844 794.134 564.663C803.115 560.352 812.942 558.196 823.614 558.196C834.287 558.196 844.114 560.352 853.094 564.663C862.075 568.844 869.168 574.593 874.375 581.91C879.711 589.096 882.379 596.87 882.379 605.232V651.876C882.379 660.238 879.711 668.078 874.375 675.394C869.168 682.581 862.075 688.329 853.094 692.641C844.114 696.822 834.287 698.913 823.614 698.913ZM823.614 673.827C832.465 673.827 839.688 671.736 845.285 667.555C850.882 663.374 853.68 657.952 853.68 651.288V605.82C853.68 599.157 850.882 593.734 845.285 589.553C839.688 585.372 832.465 583.282 823.614 583.282C814.764 583.282 807.54 585.372 801.944 589.553C796.347 593.734 793.549 599.157 793.549 605.82V651.288C793.549 657.952 796.347 663.374 801.944 667.555C807.54 671.736 814.764 673.827 823.614 673.827Z" fill="white"/>
            <path d="M360 761.224C360 755.629 361.983 751.379 365.949 748.473C370.022 745.568 375.917 744.116 383.635 744.116V791.406H428.813V761.224C428.813 755.629 430.796 751.379 434.762 748.473C438.835 745.568 444.73 744.116 452.448 744.116V842.892C452.448 848.487 450.411 852.737 446.338 855.642C442.372 858.547 436.531 860 428.813 860V811.903H383.635V842.892C383.635 848.487 381.598 852.737 377.525 855.642C373.559 858.547 367.717 860 360 860V761.224Z" fill="#FF0000"/>
            <path d="M515.243 860C506.454 860 498.362 858.278 490.966 854.835C483.57 851.284 477.675 846.55 473.28 840.632C468.993 834.607 466.849 828.151 466.849 821.264V782.851C466.849 775.965 468.993 769.563 473.28 763.645C477.675 757.619 483.57 752.885 490.966 749.442C498.362 745.891 506.454 744.116 515.243 744.116C524.033 744.116 532.125 745.891 539.521 749.442C546.917 752.885 552.758 757.619 557.046 763.645C561.44 769.563 563.638 775.965 563.638 782.851V821.264C563.638 828.151 561.44 834.607 557.046 840.632C552.758 846.55 546.917 851.284 539.521 854.835C532.125 858.278 524.033 860 515.243 860ZM515.243 839.341C522.532 839.341 528.481 837.619 533.09 834.176C537.699 830.733 540.003 826.268 540.003 820.78V783.336C540.003 777.848 537.699 773.383 533.09 769.94C528.481 766.496 522.532 764.775 515.243 764.775C507.955 764.775 502.006 766.496 497.397 769.94C492.788 773.383 490.483 777.848 490.483 783.336V820.78C490.483 826.268 492.788 830.733 497.397 834.176C502.006 837.619 507.955 839.341 515.243 839.341Z" fill="#FF0000"/>
            <path d="M625.518 860C616.3 860 607.993 858.171 600.597 854.512C593.308 850.746 587.574 845.528 583.394 838.857C579.32 832.186 577.284 824.707 577.284 816.422V761.224C577.284 755.629 579.267 751.379 583.233 748.473C587.306 745.568 593.201 744.116 600.918 744.116V816.422C600.918 823.416 603.116 829.011 607.51 833.208C612.012 837.297 618.015 839.341 625.518 839.341C633.021 839.341 638.969 837.297 643.364 833.208C647.866 829.011 650.117 823.416 650.117 816.422V761.224C650.117 755.629 652.1 751.379 656.066 748.473C660.139 745.568 666.034 744.116 673.751 744.116V816.422C673.751 824.707 671.661 832.186 667.481 838.857C663.408 845.528 657.673 850.746 650.278 854.512C642.989 858.171 634.736 860 625.518 860Z" fill="#FF0000"/>
            <path d="M736.165 860C721.159 860 709.261 857.418 700.472 852.253C691.79 847.088 687.449 839.933 687.449 830.787C687.449 826.806 688.949 823.578 691.951 821.103C694.952 818.628 699.99 817.391 707.064 817.391C707.493 825.245 710.172 831.217 715.103 835.306C720.141 839.287 727.161 841.278 736.165 841.278C743.132 841.278 748.598 840.094 752.564 837.727C756.53 835.252 758.513 831.863 758.513 827.559C758.513 824.654 757.763 822.286 756.262 820.457C754.762 818.628 752.136 816.96 748.384 815.454C744.74 813.948 739.38 812.387 732.306 810.773C721.588 808.299 713.173 805.501 707.064 802.381C700.954 799.26 696.506 795.548 693.719 791.244C691.04 786.94 689.7 781.56 689.7 775.104C689.7 768.971 691.522 763.591 695.166 758.964C698.918 754.23 704.116 750.572 710.762 747.989C717.407 745.407 725.125 744.116 733.914 744.116C742.274 744.116 749.777 745.246 756.423 747.505C763.069 749.657 768.267 752.724 772.019 756.705C775.77 760.686 777.646 765.259 777.646 770.424C777.646 774.405 776.145 777.579 773.144 779.946C770.25 782.206 765.427 783.443 758.674 783.658C758.138 776.449 755.941 771.177 752.082 767.841C748.223 764.506 742.167 762.838 733.914 762.838C727.161 762.838 721.963 763.914 718.318 766.066C714.674 768.218 712.852 771.338 712.852 775.427C712.852 778.225 713.549 780.538 714.942 782.367C716.335 784.089 718.694 785.649 722.016 787.048C725.446 788.447 730.323 789.845 736.647 791.244C747.687 793.719 756.423 796.57 762.854 799.798C769.392 802.919 774.109 806.685 777.003 811.096C780.004 815.508 781.505 820.941 781.505 827.397C781.505 833.961 779.629 839.718 775.877 844.667C772.233 849.617 766.981 853.436 760.121 856.126C753.368 858.709 745.383 860 736.165 860Z" fill="#FF0000"/>
            <path d="M796.019 756.382C796.019 753.369 797.144 750.841 799.395 748.796C801.753 746.644 804.593 745.568 807.916 745.568H879.784C879.784 752.67 878.605 757.835 876.247 761.063C873.889 764.291 870.084 765.905 864.832 765.905H819.653V791.406H861.777C861.777 798.507 860.598 803.672 858.24 806.9C855.882 810.128 852.077 811.742 846.825 811.742H819.653V838.211H868.208C873.353 838.211 877.105 839.825 879.463 843.053C881.821 846.281 883 851.446 883 858.547H807.916C804.593 858.547 801.753 857.525 799.395 855.481C797.144 853.436 796.019 850.854 796.019 847.734V756.382Z" fill="#FF0000"/>
        </g>
    </g>
    <defs>
        <filter id="filter0_d_302_2" x="356" y="558" width="531" height="310" filterUnits="userSpaceOnUse" color-interpolation-filters="sRGB">
            <feFlood flood-opacity="0" result="BackgroundImageFix"/>
            <feColorMatrix in="SourceAlpha" type="matrix" values="0 0 0 0 0 0 0 0 0 0 0 0 0 0 0 0 0 0 127 0" result="hardAlpha"/>
            <feOffset dy="4"/>
            <feGaussianBlur stdDeviation="2"/>
            <feComposite in2="hardAlpha" operator="out"/>
            <feColorMatrix type="matrix" values="0 0 0 0 0 0 0 0 0 0 0 0 0 0 0 0 0 0 0.25 0"/>
            <feBlend mode="normal" in2="BackgroundImageFix" result="effect1_dropShadow_302_2"/>
            <feBlend mode="normal" in="SourceGraphic" in2="effect1_dropShadow_302_2" result="shape"/>
        </filter>
        <clipPath id="clip0_302_2">
            <rect width="1228" height="1228" fill="white"/>
        </clipPath>
    </defs>
</svg>
